<svg width="47" height="45" viewBox="0 0 47 45" fill="none" xmlns="http://www.w3.org/2000/svg">
<path fill-rule="evenodd" clip-rule="evenodd" d="M21.4472 12.2037H21.4475C23.8171 14.5589 23.8171 18.4123 21.4475 20.7675L6.08612 36.0334L1.77722 31.7509C-0.592406 29.396 -0.592406 25.5426 1.77722 23.1877L12.83 12.2037C15.1997 9.84878 19.0775 9.84878 21.4472 12.2037Z" fill="#FDB732"/>
<mask id="mask0" mask-type="alpha" maskUnits="userSpaceOnUse" x="0" y="10" width="24" height="27">
<path d="M12.8297 12.204L1.77722 23.1877C-0.592406 25.5426 -0.592406 29.3964 1.77722 31.7513L6.08578 36.0334L21.4472 20.7675C23.8171 18.4127 23.8171 14.5589 21.4472 12.204H21.4468C20.262 11.0266 18.7003 10.4375 17.1386 10.4375C15.5765 10.4375 14.0148 11.0266 12.8297 12.204Z" fill="white"/>
</mask>
<g mask="url(#mask0)">
<path fill-rule="evenodd" clip-rule="evenodd" d="M-0.591797 36.0342H23.8177V9.84961H-0.591797V36.0342Z" fill="#EFB84E"/>
</g>
<path fill-rule="evenodd" clip-rule="evenodd" d="M21.4472 42.7258H21.4475C23.8171 40.3706 23.8171 36.5172 21.4475 34.162L6.08612 18.8965L1.77722 23.1783C-0.592406 25.5335 -0.592406 29.3869 1.77722 31.7418L12.83 42.7258C15.1997 45.0811 19.0775 45.0811 21.4472 42.7258Z" fill="#FFC737"/>
<mask id="mask1" mask-type="alpha" maskUnits="userSpaceOnUse" x="0" y="18" width="24" height="27">
<path d="M1.77722 23.1786C-0.592406 25.5335 -0.592406 29.3872 1.77722 31.7418L12.8297 42.7258C15.1996 45.0811 19.0775 45.0811 21.4468 42.7258H21.4472C23.8171 40.371 23.8171 36.5175 21.4472 34.1623L6.08578 18.8965L1.77722 23.1786Z" fill="white"/>
</mask>
<g mask="url(#mask1)">
<path fill-rule="evenodd" clip-rule="evenodd" d="M-0.591797 45.0811H23.8177V18.8965H-0.591797V45.0811Z" fill="#E2B031"/>
</g>
<path fill-rule="evenodd" clip-rule="evenodd" d="M6.08594 18.8965L15.799 26.38L14.7078 27.4644L6.08594 18.8965Z" fill="#A88C57"/>
<path fill-rule="evenodd" clip-rule="evenodd" d="M25.0021 1.76617V1.7665C22.6321 4.12105 22.6321 7.97481 25.0021 10.3297L40.3631 25.5959L44.672 21.3138C47.0416 18.9585 47.0416 15.1051 44.672 12.7502L33.6192 1.76617C31.2496 -0.588722 27.3717 -0.588722 25.0021 1.76617Z" fill="#5315C9"/>
<mask id="mask2" mask-type="alpha" maskUnits="userSpaceOnUse" x="23" y="0" width="24" height="26">
<path d="M25.0021 1.7665C22.6321 4.12139 22.6321 7.97515 25.0021 10.33L40.3635 25.5959L44.6724 21.3141C47.0416 18.9592 47.0416 15.1054 44.6724 12.7502L33.6196 1.7665C32.4347 0.588722 30.8727 0 29.3106 0C27.7489 0 26.1869 0.588722 25.0021 1.7665Z" fill="white"/>
</mask>
<g mask="url(#mask2)">
<path fill-rule="evenodd" clip-rule="evenodd" d="M22.6328 25.5967H47.0423V-0.587891H22.6328V25.5967Z" fill="#339581"/>
</g>
<path fill-rule="evenodd" clip-rule="evenodd" d="M25.0021 32.2887C22.6321 29.9335 22.6321 26.08 25.0021 23.7248L40.3631 8.45898L44.672 12.7411C47.0416 15.0963 47.0416 18.9497 44.672 21.3046L33.6192 32.2887C31.2496 34.6436 27.3717 34.6436 25.0021 32.2887Z" fill="#5E1AE2"/>
<mask id="mask3" mask-type="alpha" maskUnits="userSpaceOnUse" x="23" y="8" width="24" height="27">
<path d="M25.0021 23.7248C22.6321 26.08 22.6321 29.9331 25.0021 32.2887C27.372 34.6436 31.2496 34.6436 33.6196 32.2887L44.6724 21.3046C47.0416 18.9494 47.0416 15.096 44.6724 12.7408L40.3635 8.45898L25.0021 23.7248Z" fill="white"/>
</mask>
<g mask="url(#mask3)">
<path fill-rule="evenodd" clip-rule="evenodd" d="M22.6328 34.6436H47.0423V8.45898H22.6328V34.6436Z" fill="#27695C"/>
</g>
<path fill-rule="evenodd" clip-rule="evenodd" d="M40.3635 8.45898L30.6504 15.9425L31.7416 17.0273L40.3635 8.45898Z" fill="#2C5D53"/>
</svg>
