<svg width="191" height="45" viewBox="0 0 191 45" fill="none" xmlns="http://www.w3.org/2000/svg">
<path fill-rule="evenodd" clip-rule="evenodd" d="M21.4823 12.5044H21.4827C23.8523 14.8597 23.8523 18.7131 21.4827 21.0683L6.12128 36.3341L1.81238 32.0517C-0.55725 29.6968 -0.55725 25.8434 1.81238 23.4885L12.8652 12.5044C15.2348 10.1496 19.1127 10.1496 21.4823 12.5044Z" fill="#FDB732"/>
<mask id="mask0" mask-type="alpha" maskUnits="userSpaceOnUse" x="0" y="10" width="24" height="27">
<path d="M12.8658 12.5038L1.81335 23.4875C-0.556273 25.8424 -0.556273 29.6962 1.81335 32.0511L6.12192 36.3332L21.4833 21.0673C23.8533 18.7125 23.8533 14.8587 21.4833 12.5038H21.4829C20.2981 11.3264 18.7364 10.7373 17.1747 10.7373C15.6127 10.7373 14.051 11.3264 12.8658 12.5038Z" fill="white"/>
</mask>
<g mask="url(#mask0)">
<path fill-rule="evenodd" clip-rule="evenodd" d="M-0.555664 36.333H23.8539V10.1484H-0.555664V36.333Z" fill="#EFB84E"/>
</g>
<path fill-rule="evenodd" clip-rule="evenodd" d="M21.4823 43.0266H21.4827C23.8523 40.6714 23.8523 36.818 21.4827 34.4628L6.12128 19.1973L1.81238 23.479C-0.55725 25.8343 -0.55725 29.6877 1.81238 32.0426L12.8652 43.0266C15.2348 45.3819 19.1127 45.3819 21.4823 43.0266Z" fill="#FFC737"/>
<mask id="mask1" mask-type="alpha" maskUnits="userSpaceOnUse" x="0" y="19" width="24" height="26">
<path d="M1.81335 23.4794C-0.556273 25.8343 -0.556273 29.688 1.81335 32.0426L12.8658 43.0266C15.2358 45.3819 19.1137 45.3819 21.4829 43.0266H21.4833C23.8533 40.6717 23.8533 36.8183 21.4833 34.4631L6.12192 19.1973L1.81335 23.4794Z" fill="white"/>
</mask>
<g mask="url(#mask1)">
<path fill-rule="evenodd" clip-rule="evenodd" d="M-0.555664 45.3819H23.8539V19.1973H-0.555664V45.3819Z" fill="#E2B031"/>
</g>
<path fill-rule="evenodd" clip-rule="evenodd" d="M6.12109 19.1982L15.8342 26.6818L14.743 27.7662L6.12109 19.1982Z" fill="#A88C57"/>
<path fill-rule="evenodd" clip-rule="evenodd" d="M25.0372 2.06695V2.06728C22.6673 4.42183 22.6673 8.27559 25.0372 10.6305L40.3983 25.8966L44.7072 21.6145C47.0768 19.2593 47.0768 15.4059 44.7072 13.051L33.6544 2.06695C31.2847 -0.28794 27.4069 -0.28794 25.0372 2.06695Z" fill="#5315C9"/>
<mask id="mask2" mask-type="alpha" maskUnits="userSpaceOnUse" x="23" y="0" width="24" height="26">
<path d="M25.0372 2.06631C22.6673 4.4212 22.6673 8.27495 25.0372 10.6298L40.3986 25.8957L44.7075 21.6139C47.0768 19.259 47.0768 15.4053 44.7075 13.05L33.6547 2.06631C32.4699 0.888526 30.9079 0.299805 29.3458 0.299805C27.7841 0.299805 26.2221 0.888526 25.0372 2.06631Z" fill="white"/>
</mask>
<g mask="url(#mask2)">
<path fill-rule="evenodd" clip-rule="evenodd" d="M22.667 25.8955H47.0765V-0.289062H22.667V25.8955Z" fill="#339581"/>
</g>
<path fill-rule="evenodd" clip-rule="evenodd" d="M25.0372 32.5895C22.6673 30.2342 22.6673 26.3808 25.0372 24.0256L40.3983 8.75977L44.7072 13.0419C47.0768 15.3971 47.0768 19.2505 44.7072 21.6054L33.6544 32.5895C31.2847 34.9444 27.4069 34.9444 25.0372 32.5895Z" fill="#5E1AE2"/>
<mask id="mask3" mask-type="alpha" maskUnits="userSpaceOnUse" x="23" y="8" width="24" height="27">
<path d="M25.0372 24.0256C22.6673 26.3808 22.6673 30.2339 25.0372 32.5895C27.4072 34.9443 31.2847 34.9443 33.6547 32.5895L44.7075 21.6054C47.0768 19.2502 47.0768 15.3968 44.7075 13.0415L40.3986 8.75977L25.0372 24.0256Z" fill="white"/>
</mask>
<g mask="url(#mask3)">
<path fill-rule="evenodd" clip-rule="evenodd" d="M22.667 34.9444H47.0765V8.75977H22.667V34.9444Z" fill="#27695C"/>
</g>
<path fill-rule="evenodd" clip-rule="evenodd" d="M71.3658 22.3653C71.4295 22.1715 71.4624 21.8647 71.4624 21.4444C71.4624 20.1534 70.9148 18.9904 69.8202 17.957C68.7257 16.9236 67.535 16.4064 66.2477 16.4064C64.7664 16.4064 63.5672 16.9156 62.65 17.9324C61.7329 18.9498 61.2743 20.1524 61.2743 21.5409C61.2743 22.639 61.6125 23.6729 62.2885 24.6416C63.3179 25.901 64.5899 26.5311 66.1031 26.5311C67.261 26.5311 68.3399 26.152 69.3374 25.3928C70.335 24.6345 71.0114 23.6247 71.3658 22.3653ZM77.7202 31.979H71.4624V30.4842C69.64 31.77 67.672 32.4125 65.557 32.4125C63.8978 32.4125 62.328 32.0253 60.8481 31.2533C59.3682 30.4809 58.0747 29.3685 56.9687 27.9196C55.6021 25.891 54.9189 23.6034 54.9189 21.0587C54.9189 18.6756 55.5255 16.5421 56.738 14.6573C57.9511 12.7734 59.7216 11.4772 62.0506 10.768C62.6643 10.4787 63.336 10.2452 64.0638 10.0674C64.7911 9.89016 65.4467 9.80176 66.0284 9.80176C69.1333 9.80176 71.8577 10.8248 74.2029 12.8703C76.5476 14.9159 77.7202 17.4195 77.7202 20.3831V31.979Z" fill="#161616"/>
<path fill-rule="evenodd" clip-rule="evenodd" d="M82.2803 32.0278H88.9267V1.90332H82.2803V32.0278Z" fill="#161616"/>
<path fill-rule="evenodd" clip-rule="evenodd" d="M100.811 5.42241C100.811 6.3868 100.472 7.20606 99.7923 7.8816C99.113 8.55621 98.2719 8.89374 97.2696 8.89374C96.3316 8.89374 95.5067 8.55621 94.7955 7.8816C94.0839 7.20606 93.7285 6.3868 93.7285 5.42241C93.7285 4.45801 94.0758 3.63119 94.7713 2.93957C95.4663 2.24842 96.2997 1.90332 97.2696 1.90332C98.2401 1.90332 99.0721 2.24842 99.7685 2.93957C100.463 3.63119 100.811 4.45801 100.811 5.42241Z" fill="#EFB84E"/>
<path fill-rule="evenodd" clip-rule="evenodd" d="M94.1172 32.0274H100.569V10.8184H94.1172V32.0274Z" fill="#161616"/>
<path fill-rule="evenodd" clip-rule="evenodd" d="M117.403 26.2418C118.438 25.8532 119.23 25.2122 119.78 24.3196C120.329 23.4266 120.604 22.4452 120.604 21.374C120.604 20.0101 120.175 18.8179 119.319 17.7958C118.462 16.7733 117.322 16.2622 115.899 16.2622C114.314 16.2622 113.036 16.761 112.066 17.757C111.096 18.7536 110.611 19.9586 110.611 21.3726C110.611 22.4982 110.982 23.5585 111.727 24.5546C112.309 25.198 112.923 25.6395 113.57 25.8802C114.217 26.1213 114.961 26.2418 115.802 26.2418H117.403ZM126.863 35.0036C126.442 37.7062 125.205 39.9433 123.151 41.7141C121.097 43.4846 118.712 44.3695 115.996 44.3695C115.445 44.3695 114.354 44.249 112.722 44.0079C111.087 43.7668 109.374 42.6738 107.579 40.7294C105.784 38.7841 104.886 36.5268 104.886 33.9555H111.63C111.63 35.2092 112.082 36.2379 112.988 37.0411C113.893 37.8443 114.944 38.2466 116.141 38.2466C117.176 38.2466 118.098 37.9407 118.907 37.3309C119.586 36.6875 120.087 35.9642 120.411 35.1605V30.6775C118.729 31.8348 116.918 32.413 114.977 32.413C112.098 32.413 109.543 31.2703 107.312 28.9832C105.08 26.6961 103.965 24.0393 103.965 21.0109C103.965 20.3992 104.093 19.2712 104.353 17.6285C104.611 15.9866 105.857 14.2711 108.088 12.4836C110.32 10.6962 112.826 9.80176 115.608 9.80176C118.356 9.80176 120.79 10.6796 122.909 12.433C125.027 14.1874 126.345 16.3842 126.863 19.023V35.0036Z" fill="#161616"/>
<path fill-rule="evenodd" clip-rule="evenodd" d="M150.391 32.0272H144.182V20.6152V19.987C144.182 18.8585 143.825 17.8596 143.114 16.9884C142.402 16.119 141.562 15.6831 140.591 15.6831C140.17 15.6831 139.791 15.7479 139.451 15.877C139.112 16.0065 138.731 16.2641 138.311 16.6508C137.761 17.2952 137.39 18.053 137.195 18.9233V32.0272H131.034V17.8705C131.228 15.9053 132.085 14.2153 133.605 12.7975C135.125 11.3802 136.54 10.5269 137.85 10.2367C139.161 9.94689 140.09 9.80176 140.64 9.80176C142.936 9.80176 145.014 10.5345 146.874 12.0005C148.733 13.4664 149.906 15.3588 150.391 17.6776V32.0272Z" fill="#161616"/>
<path fill-rule="evenodd" clip-rule="evenodd" d="M170.524 19.1545C169.877 17.9485 169.012 16.9964 167.929 16.2972C166.845 15.599 165.625 15.2496 164.266 15.2496C163.102 15.2496 162.059 15.6231 161.137 16.3686C160.215 17.1146 159.592 18.0435 159.269 19.1545H170.524ZM175.812 20.9462C175.586 21.651 175.116 22.2599 174.405 22.7719C174.049 22.9 173.653 22.9964 173.217 23.0603C172.78 23.1245 172.384 23.1401 172.028 23.1075H159.463C159.883 24.2974 160.563 25.2613 161.501 26.0007C162.438 26.7401 163.473 27.1098 164.606 27.1098C165.51 27.1098 166.417 26.8531 167.322 26.3378L168.438 25.1814H175.473C174.567 27.3986 173.136 29.151 171.179 30.4364C169.222 31.7213 167.08 32.3647 164.751 32.3647C162.681 32.3647 160.732 31.8438 158.905 30.8014C157.078 29.759 155.719 28.3795 154.83 26.6635C153.94 24.9474 153.496 23.0957 153.496 21.1074C153.496 18.8302 154.094 16.7298 155.291 14.8052C156.487 12.8807 157.814 11.6298 159.269 11.0526C160.725 10.4759 161.889 10.1227 162.762 9.99464C163.635 9.86652 164.492 9.80176 165.333 9.80176C167.791 9.80176 170.192 10.7468 172.537 12.6363C174.882 14.5254 176.055 16.7033 176.055 19.1691C176.055 19.8418 175.973 20.4337 175.812 20.9462Z" fill="#161616"/>
<path fill-rule="evenodd" clip-rule="evenodd" d="M190.899 15.6354C190.058 15.6354 189.314 15.7157 188.667 15.8765C188.02 16.0377 187.47 16.3431 187.018 16.7922C186.662 17.3391 186.484 17.8696 186.484 18.3834V32.0272H179.838V17.5159C180.097 15.1371 181.172 13.2575 183.064 11.8747C184.956 10.4934 187.131 9.80176 189.589 9.80176H190.292H190.899V15.6354Z" fill="#161616"/>
<path fill-rule="evenodd" clip-rule="evenodd" d="M40.3986 8.75977L30.6855 16.2433L31.7767 17.328L40.3986 8.75977Z" fill="#2C5D53"/>
</svg>
