<svg width="32" height="33" viewBox="0 0 32 33" fill="none" xmlns="http://www.w3.org/2000/svg">
<g clip-path="url(#clip0)">
<path d="M16 32.7456C24.8366 32.7456 32 25.5822 32 16.7456C32 7.90905 24.8366 0.745605 16 0.745605C7.16344 0.745605 0 7.90905 0 16.7456C0 25.5822 7.16344 32.7456 16 32.7456Z" fill="#F0F0F0"/>
<path d="M15.3042 16.7457H31.9998C31.9998 15.3016 31.8073 13.9026 31.4486 12.5718H15.3042V16.7457Z" fill="#D80027"/>
<path d="M15.3042 8.39781H29.6515C28.672 6.79956 27.4197 5.38688 25.9596 4.22388H15.3042V8.39781Z" fill="#D80027"/>
<path d="M15.9993 32.7456C19.7649 32.7456 23.2259 31.4441 25.959 29.2673H6.03955C8.77268 31.4441 12.2337 32.7456 15.9993 32.7456Z" fill="#D80027"/>
<path d="M2.34797 25.0932H29.6512C30.4375 23.8102 31.0473 22.4077 31.4484 20.9193H0.550781C0.951844 22.4077 1.56166 23.8102 2.34797 25.0932Z" fill="#D80027"/>
<path d="M7.4115 3.24423H8.86956L7.51331 4.22954L8.03137 5.82386L6.67519 4.83854L5.319 5.82386L5.7665 4.44654C4.57237 5.44123 3.52575 6.60661 2.66325 7.90511H3.13044L2.26712 8.53229C2.13262 8.75667 2.00362 8.9846 1.88 9.21592L2.29225 10.4847L1.52313 9.92592C1.33194 10.331 1.15706 10.7452 0.999875 11.168L1.45406 12.566H3.13044L1.77419 13.5513L2.29225 15.1456L0.936063 14.1603L0.123687 14.7505C0.042375 15.4042 0 16.0699 0 16.7456H16C16 7.90911 16 6.86736 16 0.745605C12.8393 0.745605 9.89281 1.66248 7.4115 3.24423ZM8.03137 15.1456L6.67519 14.1603L5.319 15.1456L5.83706 13.5513L4.48081 12.566H6.15719L6.67519 10.9717L7.19319 12.566H8.86956L7.51331 13.5513L8.03137 15.1456ZM7.51331 8.89042L8.03137 10.4847L6.67519 9.49942L5.319 10.4847L5.83706 8.89042L4.48081 7.90511H6.15719L6.67519 6.31079L7.19319 7.90511H8.86956L7.51331 8.89042ZM13.7705 15.1456L12.4143 14.1603L11.0581 15.1456L11.5762 13.5513L10.2199 12.566H11.8963L12.4143 10.9717L12.9323 12.566H14.6087L13.2524 13.5513L13.7705 15.1456ZM13.2524 8.89042L13.7705 10.4847L12.4143 9.49942L11.0581 10.4847L11.5762 8.89042L10.2199 7.90511H11.8963L12.4143 6.31079L12.9323 7.90511H14.6087L13.2524 8.89042ZM13.2524 4.22954L13.7705 5.82386L12.4143 4.83854L11.0581 5.82386L11.5762 4.22954L10.2199 3.24423H11.8963L12.4143 1.64992L12.9323 3.24423H14.6087L13.2524 4.22954Z" fill="#0052B4"/>
</g>
<defs>
<clipPath id="clip0">
<rect width="32" height="32" fill="white" transform="translate(0 0.745605)"/>
</clipPath>
</defs>
</svg>

