<svg width="32" height="32" viewBox="0 0 32 32" fill="none" xmlns="http://www.w3.org/2000/svg">
<g clip-path="url(#clip0)">
<path d="M0 16C0 17.9571 0.352063 19.8319 0.995188 21.5652L16 22.2609L31.0048 21.5652C31.648 19.8319 32 17.9571 32 16C32 14.0429 31.648 12.1681 31.0048 10.4348L16 9.73911L0.995188 10.4347C0.352063 12.1681 0 14.0429 0 16Z" fill="black"/>
<path d="M15.9999 -3.05176e-05C9.12049 -3.05176e-05 3.25581 4.34197 0.995117 10.4348H31.0048C28.7441 4.34197 22.8794 -3.05176e-05 15.9999 -3.05176e-05Z" fill="#0052B4"/>
<path d="M31.0047 21.5652H0.995117C3.2558 27.6579 9.12049 32 15.9999 32C22.8794 32 28.7441 27.6579 31.0047 21.5652Z" fill="white"/>
</g>
<defs>
<clipPath id="clip0">
<rect width="32" height="32" fill="white"/>
</clipPath>
</defs>
</svg>
