<svg width="33" height="33" viewBox="0 0 33 33" fill="none" xmlns="http://www.w3.org/2000/svg">
<g clip-path="url(#clip0)">
<path d="M16.4951 32.7561C25.3317 32.7561 32.4951 25.5927 32.4951 16.7561C32.4951 7.91955 25.3317 0.756104 16.4951 0.756104C7.65856 0.756104 0.495117 7.91955 0.495117 16.7561C0.495117 25.5927 7.65856 32.7561 16.4951 32.7561Z" fill="#F0F0F0"/>
<path d="M31.4999 22.3212C32.1431 20.5879 32.4951 18.7131 32.4951 16.756C32.4951 14.7989 32.1431 12.9241 31.4999 11.1908H1.4903C0.84718 12.9241 0.495117 14.7989 0.495117 16.756C0.495117 18.7131 0.84718 20.5879 1.4903 22.3212L16.4951 23.7125L31.4999 22.3212Z" fill="#0052B4"/>
<path d="M16.495 32.756C23.3745 32.756 29.2392 28.414 31.4999 22.3212H1.49023C3.75092 28.414 9.61561 32.756 16.495 32.756Z" fill="#D80027"/>
</g>
<defs>
<clipPath id="clip0">
<rect width="32" height="32" fill="white" transform="translate(0.495117 0.756104)"/>
</clipPath>
</defs>
</svg>
